<?xml version="1.0" encoding="UTF-8"?>
<svg id="Camada_2" data-name="Camada 2" xmlns="http://www.w3.org/2000/svg" viewBox="0 0 3261.3 1145.32">
  <defs>
    <style>
      .cls-1 {
        fill: #f0f8f8;
      }
    </style>
  </defs>
  <g id="Apresentações">
    <g>
      <path id="_04" data-name="04" class="cls-1" d="M1411.21,515.51l5.72-65.33c.4-4.6,5.08-7.57,9.39-5.93,30.29,11.49,62.88,18.34,92.44,18.34s54.15-16.09,55.07-28.18c3.74-49.1-146.89-26.8-137.47-134.55,5.96-68.13,66-108.23,139.93-108.23,27.49,0,62.04,5.89,87.01,14.91,3.09,1.12,5,4.2,4.64,7.46l-7.03,63.6c-.52,4.71-5.33,7.61-9.76,5.95-22.28-8.39-50.7-15.88-80.91-15.88-24.16,0-41.62,15.66-42.59,26.29-4,43.89,150.16,32.53,140.33,136.37-6.17,65.19-59.09,112.1-149.93,112.1-33.61,0-70.15-6.58-102.52-19.74-2.86-1.16-4.59-4.09-4.32-7.16ZM2126.03,497.96c-2.71,11.17-4.78,45.9-88.41,43.97-49.81-1.15-72.71-30.44-68.66-76.83,4.78-54.6,49.18-81.66,119.73-81.66h48.58l.17-1.93c3.25-34.79-12.09-43.44-62.8-43.25-21.13.08-43.96,6.42-65.61,14.76-5.55,2.14-11.4-2.36-10.81-8.28l3.85-38.57c.67-6.73,4.86-12.67,11.07-15.34,25.34-10.93,53.8-16.53,86.19-16.53,93.74,0,124.12,54.54,117.78,127.02l-10.2,116.63c-.9,10.29-9.52,18.18-19.84,18.18h-54.76c-5.17,0-9.23-4.43-8.78-9.58l2.5-28.59ZM2077.85,483.24c21.74,0,52.05-20.07,53.7-38.91l1.31-14.98h-53.98c-17.88,0-35.49,9.72-36.8,24.7-1.31,14.98,15.01,29.19,35.78,29.19ZM2984.35,673.34h66.26c4.19,0,7.49,3.57,7.17,7.75l-1.35,17.47c-.39,5,5.88,7.65,9.11,3.82,18.82-22.32,46.49-34.58,82.5-34.58h0c1.25,0,2.22,1.08,2.09,2.32l-8.71,82.42c-.36,3.38-3.48,5.75-6.82,5.19-4.72-.79-9.7-1.02-15.4-1.02-38.65,0-70.25,27.06-74.22,72.48l-8.37,95.64c-.31,3.57-3.3,6.31-6.89,6.31h-75.62c-3.33,0-5.92-2.89-5.56-6.19l26.08-242.84c.53-4.98,4.74-8.75,9.74-8.75ZM2278.52,278.35h66.26c4.19,0,7.49,3.57,7.17,7.75l-1.35,17.47c-.39,5,5.88,7.65,9.11,3.82,18.82-22.32,46.49-34.58,82.5-34.58h0c1.25,0,2.22,1.08,2.09,2.32l-8.71,82.42c-.36,3.38-3.48,5.75-6.82,5.19-4.72-.79-9.7-1.02-15.4-1.02-38.65,0-70.25,27.06-74.22,72.48l-8.37,95.64c-.31,3.57-3.3,6.31-6.89,6.31h-75.62c-3.33,0-5.92-2.89-5.56-6.19l26.08-242.84c.53-4.98,4.74-8.75,9.74-8.75ZM2451.12,404.95c6.38-72.96,69.84-132.55,150.53-132.55,20.72,0,45.17,4.32,61.78,10.07,3.31,1.14,5.34,4.46,4.97,7.94l-6.62,61.83c-.5,4.65-5.05,7.72-9.56,6.49-15.47-4.2-29.69-6.45-42.36-6.45-45.9,0-67.26,23.19-69.84,52.67-2.62,29.96,14.68,53.15,60.58,53.15,12.32,0,25.24-1.47,40.42-4.68,5.01-1.06,9.6,3.1,9.08,8.2l-6.42,62.64c-.31,3.02-2.38,5.57-5.28,6.47-17.07,5.33-39.7,8.54-60.85,8.54-80.69,0-132.87-60.88-126.44-134.33ZM2784.61,292.6c-.65,6.77,6.55,11.46,12.49,8.17,22.42-12.41,45.47-16.13,60.8-14.37,50.22,5.77,85.43,37.52,80.21,89.32l-13.36,152.71c-.38,4.36-4.03,7.7-8.41,7.7h-76.68c-4.99,0-8.89-4.31-8.4-9.27l11.34-114.17c2.24-25.61-1.38-51.31-30.4-48.08-21.38,2.38-34.52,22.47-36.76,48.08l-11.5,115.84c-.43,4.32-4.06,7.61-8.4,7.61h-70.75c-5.02,0-8.93-4.35-8.39-9.34l35.65-331.41c.46-4.29,4.08-7.54,8.39-7.54h64.98c4.98,0,8.88,4.29,8.4,9.25l-9.21,95.5ZM1416.39,606.13h77.33c4.78,0,8.51,4.15,7.99,8.91l-25.07,230.54c-.52,4.76,3.21,8.91,7.99,8.91h123.8c4.78,0,8.51,4.15,7.99,8.91l-8,73.79c-.44,4.08-3.89,7.17-7.99,7.17h-196.57c-16.69,0-29.68-14.48-27.89-31.07l32.42-299.99c.44-4.08,3.89-7.18,7.99-7.18ZM1640.5,823.38c6.47-73.93,73.08-133.84,149.42-133.84s131.98,59.92,125.51,133.84c-6.51,74.41-74.06,129.03-149.92,129.03s-131.52-54.62-125.01-129.03ZM1771.81,878.75c30.85,0,59.96-22.7,63.01-57.55,3-34.28-20.26-62.28-51.12-62.28s-59.59,28-62.58,62.28c-3.05,34.85,19.26,57.55,50.69,57.55ZM2010.59,914.94l-2.14,19.71c-.37,3.37-3.21,5.92-6.59,5.92h-59.73c-4.77,0-8.49-4.13-7.99-8.88l33.89-319.88c.44-4.11,3.91-7.23,8.04-7.23h68.27c4.38,0,7.79,3.79,7.33,8.14l-9.93,94.45c19.19-14.98,42.18-23.68,66.82-23.68,66.2,0,110.49,57.02,103.81,133.36-6.81,77.79-63.59,127.72-133.63,129.51-29.64.76-56.22-4.11-68.16-31.43ZM2080.53,878.01c30.72,0,58.13-27.68,61.17-62.85,2.99-34.6-19.65-62.28-50.37-62.28s-61.7,27.97-64.69,62.57c-3.04,35.17,22.61,62.56,53.89,62.56ZM2232.71,919.59l5.21-52.15c.49-4.87,5.51-7.88,10.05-6.06,25.37,10.13,45.56,15.36,71.5,14.15,40.95-1.91,41.09-12.08,41.75-18.35,3.48-32.91-125.21-2.63-118.13-90.32,4.61-57.05,63.39-89.39,125.72-89.39,22.08,0,49.06,4.04,70.39,10.27,3.41.99,5.61,4.28,5.24,7.81l-4.82,46.4c-.48,4.59-5.02,7.6-9.43,6.25-22.28-6.82-43.74-10.06-63.89-9.32-41.99,1.55-44.03,13.66-44.93,20.39-3.97,29.7,128.58,7.11,120.8,96.01-4.44,50.73-47.54,85.06-125.82,85.06-32,0-59.83-6.76-78.71-13.07-3.24-1.08-5.27-4.27-4.93-7.67ZM2681.28,813.72c7.14-81.66,61.86-139.28,140.62-139.28s118.61,52.67,110.4,146.41l-.33,3.77c-.29,3.33-3.08,5.89-6.43,5.89h-159.4c-4.21,0-7.37,3.97-6.32,8.05,4.64,18.02,27.2,34.65,64.66,34.65,28.18,0,57.91-3.94,85.82-12.91,4.45-1.43,8.89,2.19,8.38,6.84l-5.84,52.91c-.26,2.37-1.81,4.37-4.01,5.28-26.81,11.1-67.36,17.28-98.31,17.28-89.39,0-135.96-52.06-129.24-128.88ZM2862.51,783.16c4.19,0,7.26-3.93,6.3-8.01-4.74-20.19-18.75-38.07-51.56-37.27-21.48.52-39.91,16.19-48.89,36.21-1.91,4.26,1.25,9.07,5.91,9.07h88.24ZM1697.52,417.05c7.14-81.66,63.26-139.73,142.02-139.73s118.61,52.67,110.4,146.41l-.3,3.47c-.31,3.5-3.24,6.19-6.76,6.19h-158.68c-4.43,0-7.79,4.18-6.63,8.46,4.87,17.86,27.38,34.25,64.55,34.25,28.03,0,57.49-3.74,85.25-12.57,4.68-1.49,9.33,2.3,8.8,7.18l-5.68,52.01c-.27,2.49-1.9,4.6-4.21,5.56-26.81,11.05-67.24,17.21-98.12,17.21-89.39,0-137.36-51.61-130.64-128.44ZM1879.73,386.04c4.41,0,7.66-4.13,6.62-8.42-4.83-20.02-18.88-37.65-51.46-36.86-21.31.52-39.63,15.95-48.68,35.74-2.04,4.46,1.31,9.53,6.21,9.53h87.31ZM3165.11,644.42c0-26.21,21.56-47.56,47.99-47.56s48.2,21.35,48.2,47.56-21.77,47.99-48.2,47.99-47.99-21.35-47.99-47.99ZM3213.1,680.99c20.08,0,35.73-16.28,35.73-36.57s-15.64-36.15-35.73-36.15-35.94,16.07-35.94,36.15,16.07,36.57,35.94,36.57ZM3195.34,618.84h19.45c10.78,0,18.81,6.98,18.81,15.85,0,6.34-4.65,12.47-10.99,15.43l12.05,17.97h-13.53l-10.57-16.91h-4.02v16.91h-11.2v-49.25ZM3214.58,642.09c4.23,0,7.4-2.75,7.4-6.76,0-3.59-3.17-6.34-7.4-6.34h-8.03v13.11h8.03ZM2641.58,881.33c.46-4.26-3.5-7.68-7.63-6.55-10.65,2.92-24.78,3.08-36.15,1.98-19.81-1.91-16.76-17.09-15.89-27.48l9.43-88.39c.33-3.1,2.94-5.45,6.06-5.45l56.59-.02c3.11,0,5.72-2.34,6.06-5.44l6.5-59.82c.39-3.61-2.43-6.75-6.06-6.75h-54.04c-3.61,0-6.43-3.13-6.06-6.72l6-58.12c.37-3.6-2.45-6.72-6.06-6.72h-79.26c-3.13,0-5.76,2.37-6.07,5.49l-6.04,60.58c-.31,3.12-2.93,5.49-6.07,5.49h-23.13c-3.13,0-5.76,2.37-6.07,5.49l-5.95,59.84c-.36,3.59,2.46,6.7,6.07,6.7h20.11c3.62,0,6.45,3.14,6.06,6.74l-12.01,112.62c-4.29,46.88,40.85,58.96,59.28,61.01,16.63,1.85,71.39,1.22,87.33-7.82,1.48-.84,2.23-2.56,2.41-4.26l4.59-42.4Z"/>
      <g>
        <path class="cls-1" d="M46.71,345.78c4.57-4.03,14.26-4.43,20.01-6.53,102.19-37.41,180.65-99.33,292.3-121.05,45.93-8.94,92.18-10.33,138.87-7.26,4.95-4.22-17.37-8.92-19-9.24-84.06-16.93-169.45-5.89-247.39,27.84-55.24,23.91-107.53,55.08-163.9,76.69-.69-1.39-.38-2.88.36-4.38-7.69,14.29-14.78,28.95-21.25,43.94Z"/>
        <path class="cls-1" d="M572.66,0C354.62,0,165.04,121.86,68.32,301.19c1.46-2.54,3.97-5.06,4.92-7.11,115.59-65.87,238.72-116.07,375.4-102.51,38.74,3.85,78.48,17.2,114.71,30.61,24.57,9.09,46.5,19.48,67.46,35.32,29.7-15.27,61.67-25.34,94.46-31.53,97.12-18.33,220.99-14.86,281.25,75.36l-65.46-4.89c-73.04,3.9-147.3,30.14-202.59,78.36-4.11,3.58-30.31,29.04-31.47,31.51-1.07,2.26-1.66,3.97.81,5.66,2.05,1.4,28.39,5.14,33.12,5.63,59.33,6.17,118.17,3.32,173.98-19.74l35.09-18.98c1.72,1.71-14.04,20.91-16.18,23.36-58.55,67.07-177.05,87.49-262.36,91.25-22.09.97-44.18-4.1-64.46,1.08,4.1-1.81,7.4-3.44,8.56-3.85l5.22-3.03c.77-.44,1.48-.99,2.1-1.62,39.05-39.2,60.42-76.04,55.8-134.42-2.47-31.28-24.81-73.84-47.87-94.14-1.61.89-2.71.88-4.44,1.48-1.64.98-3.34,1.84-5.13,2.51-2.24,1.62-3.13,2.33-5.71,3.33.16.74.22.8.28.9,0,0,.3.82,1.52,2.3,45.43,55.01,59.1,143.91-13.4,183.21-7.29,3.95-18.82,9.82-26.98,8.55,38.05-42.97,53.12-105.23,36.34-160.64-2.04-6.73-8.3-21.18-12.06-25.59l-14.4,10.61c4.97,7.65,12.01,39.64,12.72,48.1,3.12,37.06-5.98,71.03-36.3,94.43-3.52,2.72-22.82,13.8-26.2,14.29-3.54.52-6.88-2.4-6.88-2.4-.16.45,1.03,2.17,1.03,2.17l.62.74c5.25,6.09,8.97,13.38,14.54,19.26,6.36,6.72,14.08,12.49,21.54,17.96,7.7,5.65,15.95,11.17,25.17,13.97,3.39,1.03,6.84,1.94,10.31,2.8.13-.01.27-.01.41-.02-4.12,1.29-8.17,3.05-12.12,5.42-14.33,20.46-33.46,34.97-55.14,46.82l-81.47,92.68c-12.85,11.01-27.57,23.2-41.31,32.97-6.85,4.87-44.4,26.14-45.88,28.4-2.91,4.44,13.95,9.95,17.76,11.38,16.08,6.05,32.44,8.54,49.3,11.28-13.14,43.66-13.51,91.32,8.06,132.36-61.71-17.66-118.37-65.89-135.79-129.02-17.99,2.29-35.78,8.28-53.95,9.53-23.83,1.64-54.71-1.21-77.54-8-14.34-4.27-27.79-10.17-40.23-17.44l35.9-79.88,126.41-96.44,1.64-1.25,4.82-80.06c19.11-2.12,34.03-18.37,34.03-38.04,0-6.71-1.74-13.02-4.79-18.51,69.27-7.78,138.75-1.73,196.68,40.93-.52-16.02-5.27-31.55-4.89-47.71,1.01-43.01,27.01-82.93,61.55-106.72-9.54-24.56-36.17-58.48-62.75-64.72-58.49-13.72-146.68-4.47-203.02,15.67-93.56,33.44-178.2,94.02-276.74,116.24C15.78,419.46,0,494.21,0,572.66c0,7.68.16,15.33.46,22.94l17.87-10.06c13.78,77.1,68.43,146.08,142.1,173.6-14.74,20.02-48.77,40.74-73.49,42.74-8.29.67-32.66-.13-39.45-4.09-.97-.57-2.22-2.38-3.6-4.91,86.29,206.96,290.54,352.44,528.77,352.44,316.27,0,572.66-256.39,572.66-572.66S888.93,0,572.66,0ZM271.41,409.86c13.87-4.45,28.31-7.57,43.45-9.78,2.91-.42,5.82-.82,8.73-1.2,3.57,4.85,5.68,10.84,5.68,17.31,0,16.15-13.14,29.28-29.28,29.28s-29.28-13.14-29.28-29.28c0-2.17.25-4.29.7-6.33ZM38.55,551.73c30.73-49.31,85.43-75.63,137.63-96.56,20.24-8.12,25.39-7.65,44.13-20.46,13.35-9.13,27.14-16.12,41.53-21.52-.08.99-.13,1.99-.13,3,0,19.5,14.65,35.62,33.52,37.97l-4.54,75.48-126.59,96.58-36.35,80.88c-51.71-33.75-84.41-92.1-89.21-155.37ZM95.49,885.42c-4.96-6.93-20.5-28.88-22.63-35.5-2.22-6.92-1.53-16.39-2.86-23.79l28.32-1.7,5.58,71.12c-3.33-2.42-6-6.75-8.42-10.14ZM297.66,1006.97c-49.96-19.76-99.33-46.21-137.95-84.05l-20.43-112.17c-.04-5.83,6.6-7.18,10.63-10.5,5.54-4.56,11.05-9.43,16.18-14.47l23.61,120.06c33.31,33.32,71.65,62.03,104.78,95.44,1.71,1.72,3.8,2.79,3.19,5.68ZM393.74,958.54c-54.38-12.94-104.52-38.29-151.01-68.58-15.81-42.75-29.04-86.72-37.08-131.65h33.91l31.52,109.77c39.08,28.67,80.31,55.11,118.51,84.93,1.04.81,5.68,3.94,4.16,5.53ZM677.5,577.04c53.5-15.86,108.64-20.47,164.32-15.7-10.37,8.61-25.73,11.94-38.22,17.47-52.64,23.26-104.79,55.54-153.03,87.84-7.45-.51-16.14-.16-26.23,1.04-29.68,3.55-50.42,24.4-50.42,50.69,0,1.65.07,3.26.21,4.82l-119.79,15.89c29.04-84.03,147.03-139.48,223.16-162.05ZM937.75,711.35c-89.33,133.34-224.85,215.99-390.38,195.28-72.37-9.05-99.42-58.26-99.67-128.14-.04-10.33,1.3-20.31,3.78-29.93l124.35-16.5c5.23,17,21.06,26.18,45.88,26.18,26.09,0,66.33-22.05,66.33-51.36,0-1.27-.04-2.5-.09-3.7,98.52-13.19,162.43-45.64,233.81-124.08,8.44-9.28,16.38-22.06,24.33-30.57,5.42-5.8,6.23-2.86,9.07,3.59,21.36,48.49,11.47,116.11-17.41,159.22Z"/>
        <circle class="cls-1" cx="453.14" cy="462.63" r="35.64" transform="translate(-105.58 790.04) rotate(-75.96)"/>
      </g>
    </g>
  </g>
</svg>