<?xml version="1.0" encoding="UTF-8"?>
<svg id="Camada_2" data-name="Camada 2" xmlns="http://www.w3.org/2000/svg" viewBox="0 0 3302.95 1145.32">
  <defs>
    <style>
      .cls-1 {
        fill: #f0f8f8;
      }

      .cls-2 {
        font-family: RigSans-Semibold, 'Rig Sans';
        font-size: 211.39px;
        font-weight: 600;
      }

      .cls-2, .cls-3 {
        fill: #fa382e;
      }
    </style>
  </defs>
  <g id="Apresentações">
    <g id="_08" data-name="08">
      <g>
        <g id="_04" data-name="04">
          <g>
            <g>
              <path class="cls-3" d="M1411.98,515.51l5.72-65.33c.4-4.6,5.08-7.57,9.39-5.93,30.29,11.49,62.88,18.34,92.44,18.34s54.15-16.09,55.07-28.18c3.74-49.1-146.89-26.8-137.47-134.55,5.96-68.13,66-108.23,139.93-108.23,27.49,0,62.04,5.89,87.01,14.91,3.09,1.12,5,4.2,4.64,7.46l-7.03,63.6c-.52,4.71-5.33,7.61-9.76,5.95-22.28-8.39-50.7-15.88-80.91-15.88-24.16,0-41.62,15.66-42.59,26.29-4,43.89,150.16,32.53,140.33,136.37-6.17,65.19-59.09,112.1-149.93,112.1-33.61,0-70.15-6.58-102.52-19.74-2.86-1.16-4.59-4.09-4.32-7.16Z"/>
              <path class="cls-3" d="M2126.8,497.96c-2.71,11.17-4.78,45.9-88.41,43.97-49.81-1.15-72.71-30.44-68.66-76.83,4.78-54.6,49.18-81.66,119.73-81.66h48.58l.17-1.93c3.25-34.79-12.09-43.44-62.8-43.25-21.13.08-43.96,6.42-65.61,14.76-5.55,2.14-11.4-2.36-10.81-8.28l3.85-38.57c.67-6.73,4.86-12.67,11.07-15.34,25.34-10.93,53.8-16.53,86.19-16.53,93.74,0,124.12,54.54,117.78,127.02l-10.2,116.63c-.9,10.29-9.52,18.18-19.84,18.18h-54.76c-5.17,0-9.23-4.43-8.78-9.58l2.5-28.59ZM2078.63,483.24c21.74,0,52.05-20.07,53.7-38.91l1.31-14.98h-53.98c-17.88,0-35.49,9.72-36.8,24.7-1.31,14.98,15.01,29.19,35.78,29.19Z"/>
              <path class="cls-3" d="M2985.13,673.34h66.26c4.19,0,7.49,3.57,7.17,7.75l-1.35,17.47c-.39,5,5.88,7.65,9.11,3.82,18.82-22.32,46.49-34.58,82.5-34.58h0c1.25,0,2.22,1.08,2.09,2.32l-8.71,82.42c-.36,3.38-3.48,5.75-6.82,5.19-4.72-.79-9.7-1.02-15.4-1.02-38.65,0-70.25,27.06-74.22,72.48l-8.37,95.64c-.31,3.57-3.3,6.31-6.89,6.31h-75.62c-3.33,0-5.92-2.89-5.56-6.19l26.08-242.84c.53-4.98,4.74-8.75,9.74-8.75Z"/>
              <path class="cls-3" d="M2279.3,278.35h66.26c4.19,0,7.49,3.57,7.17,7.75l-1.35,17.47c-.39,5,5.88,7.65,9.11,3.82,18.82-22.32,46.49-34.58,82.5-34.58h0c1.25,0,2.22,1.08,2.09,2.32l-8.71,82.42c-.36,3.38-3.48,5.75-6.82,5.19-4.72-.79-9.7-1.02-15.4-1.02-38.65,0-70.25,27.06-74.22,72.48l-8.37,95.64c-.31,3.57-3.3,6.31-6.89,6.31h-75.62c-3.33,0-5.92-2.89-5.56-6.19l26.08-242.84c.53-4.98,4.74-8.75,9.74-8.75Z"/>
              <path class="cls-3" d="M2451.9,404.95c6.38-72.96,69.84-132.55,150.53-132.55,20.72,0,45.17,4.32,61.78,10.07,3.31,1.14,5.34,4.46,4.97,7.94l-6.62,61.83c-.5,4.65-5.05,7.72-9.56,6.49-15.47-4.2-29.69-6.45-42.36-6.45-45.9,0-67.26,23.19-69.84,52.67-2.62,29.96,14.68,53.15,60.58,53.15,12.32,0,25.24-1.47,40.42-4.68,5.01-1.06,9.6,3.1,9.08,8.2l-6.42,62.64c-.31,3.02-2.38,5.57-5.28,6.47-17.07,5.33-39.7,8.54-60.85,8.54-80.69,0-132.87-60.88-126.44-134.33Z"/>
              <path class="cls-3" d="M2785.39,292.6c-.65,6.77,6.55,11.46,12.49,8.17,22.42-12.41,45.47-16.13,60.8-14.37,50.22,5.77,85.43,37.52,80.21,89.32l-13.36,152.71c-.38,4.36-4.03,7.7-8.41,7.7h-76.68c-4.99,0-8.89-4.31-8.4-9.27l11.34-114.17c2.24-25.61-1.38-51.31-30.4-48.08-21.38,2.38-34.52,22.47-36.76,48.08l-11.5,115.84c-.43,4.32-4.06,7.61-8.4,7.61h-70.75c-5.02,0-8.93-4.35-8.39-9.34l35.65-331.41c.46-4.29,4.08-7.54,8.39-7.54h64.98c4.98,0,8.88,4.29,8.4,9.25l-9.21,95.5Z"/>
              <path class="cls-3" d="M1417.17,606.13h77.33c4.78,0,8.51,4.15,7.99,8.91l-25.07,230.54c-.52,4.76,3.21,8.91,7.99,8.91h123.8c4.78,0,8.51,4.15,7.99,8.91l-8,73.79c-.44,4.08-3.89,7.17-7.99,7.17h-196.57c-16.69,0-29.68-14.48-27.89-31.07l32.42-299.99c.44-4.08,3.89-7.18,7.99-7.18Z"/>
              <path class="cls-3" d="M1641.27,823.38c6.47-73.93,73.08-133.84,149.42-133.84s131.98,59.92,125.51,133.84c-6.51,74.41-74.06,129.03-149.92,129.03s-131.52-54.62-125.01-129.03ZM1772.58,878.75c30.85,0,59.96-22.7,63.01-57.55,3-34.28-20.26-62.28-51.12-62.28s-59.59,28-62.58,62.28c-3.05,34.85,19.26,57.55,50.69,57.55Z"/>
              <path class="cls-3" d="M2011.36,914.94l-2.14,19.71c-.37,3.37-3.21,5.92-6.59,5.92h-59.73c-4.77,0-8.49-4.13-7.99-8.88l33.89-319.88c.44-4.11,3.91-7.23,8.04-7.23h68.27c4.38,0,7.79,3.79,7.33,8.14l-9.93,94.45c19.19-14.98,42.18-23.68,66.82-23.68,66.2,0,110.49,57.02,103.81,133.36-6.81,77.79-63.59,127.72-133.63,129.51-29.64.76-56.22-4.11-68.16-31.43ZM2081.31,878.01c30.72,0,58.13-27.68,61.17-62.85,2.99-34.6-19.65-62.28-50.37-62.28s-61.7,27.97-64.69,62.57c-3.04,35.17,22.61,62.56,53.89,62.56Z"/>
              <path class="cls-3" d="M2233.48,919.59l5.21-52.15c.49-4.87,5.51-7.88,10.05-6.06,25.37,10.13,45.56,15.36,71.5,14.15,40.95-1.91,41.09-12.08,41.75-18.35,3.48-32.91-125.21-2.63-118.13-90.32,4.61-57.05,63.39-89.39,125.72-89.39,22.08,0,49.06,4.04,70.39,10.27,3.41.99,5.61,4.28,5.24,7.81l-4.82,46.4c-.48,4.59-5.02,7.6-9.43,6.25-22.28-6.82-43.74-10.06-63.89-9.32-41.99,1.55-44.03,13.66-44.93,20.39-3.97,29.7,128.58,7.11,120.8,96.01-4.44,50.73-47.54,85.06-125.82,85.06-32,0-59.83-6.76-78.71-13.07-3.24-1.08-5.27-4.27-4.93-7.67Z"/>
              <path class="cls-3" d="M2682.06,813.72c7.14-81.66,61.86-139.28,140.62-139.28s118.61,52.67,110.4,146.41l-.33,3.77c-.29,3.33-3.08,5.89-6.43,5.89h-159.4c-4.21,0-7.37,3.97-6.32,8.05,4.64,18.02,27.2,34.65,64.66,34.65,28.18,0,57.91-3.94,85.82-12.91,4.45-1.43,8.89,2.19,8.38,6.84l-5.84,52.91c-.26,2.37-1.81,4.37-4.01,5.28-26.81,11.1-67.36,17.28-98.31,17.28-89.39,0-135.96-52.06-129.24-128.88ZM2863.29,783.16c4.19,0,7.26-3.93,6.3-8.01-4.74-20.19-18.75-38.07-51.56-37.27-21.48.52-39.91,16.19-48.89,36.21-1.91,4.26,1.25,9.07,5.91,9.07h88.24Z"/>
              <path class="cls-3" d="M1698.29,417.05c7.14-81.66,63.26-139.73,142.02-139.73s118.61,52.67,110.4,146.41l-.3,3.47c-.31,3.5-3.24,6.19-6.76,6.19h-158.68c-4.43,0-7.79,4.18-6.63,8.46,4.87,17.86,27.38,34.25,64.55,34.25,28.03,0,57.49-3.74,85.25-12.57,4.68-1.49,9.33,2.3,8.8,7.18l-5.68,52.01c-.27,2.49-1.9,4.6-4.21,5.56-26.81,11.05-67.24,17.21-98.12,17.21-89.39,0-137.36-51.61-130.64-128.44ZM1880.51,386.04c4.41,0,7.66-4.13,6.62-8.42-4.83-20.02-18.88-37.65-51.46-36.86-21.31.52-39.63,15.95-48.68,35.74-2.04,4.46,1.31,9.53,6.21,9.53h87.31Z"/>
            </g>
            <text class="cls-2" transform="translate(3159.55 747.37)"><tspan x="0" y="0">®</tspan></text>
            <path class="cls-3" d="M2637.76,923.73c-.18,1.69-.93,3.42-2.41,4.26-15.94,9.04-70.7,9.67-87.33,7.82-18.43-2.05-63.56-14.13-59.28-61.01l12.01-112.62c.38-3.6-2.44-6.74-6.06-6.74h-20.11c-3.61,0-6.42-3.11-6.07-6.7l5.95-59.84c.31-3.12,2.93-5.49,6.07-5.49h23.13c3.13,0,5.76-2.37,6.07-5.49l6.04-60.58c.31-3.12,2.93-5.49,6.07-5.49h79.26c3.61,0,6.43,3.13,6.06,6.72l-6,58.12c-.37,3.6,2.45,6.72,6.06,6.72h54.04c3.63,0,6.45,3.15,6.06,6.75l-6.5,59.82c-.34,3.09-2.95,5.44-6.06,5.44l-56.59.02c-3.12,0-5.73,2.35-6.06,5.45l-9.43,88.39c-.87,10.4-3.92,25.57,15.89,27.48,11.36,1.09,25.5.94,36.15-1.98,4.13-1.14,8.09,2.28,7.63,6.55l-4.59,42.4Z"/>
          </g>
        </g>
        <g>
          <g id="Opção_1" data-name="Opção 1">
            <circle class="cls-3" cx="573.43" cy="572.66" r="572.66"/>
            <g>
              <path class="cls-1" d="M574.57,235.17c-.38,6.89,7.41,10.43,11.25,15.38,5.24,6.75,9.46,14.17,14.57,21.01l1.63,2.01,14.29-8.73c-1.07-1.78-1.44-2.45-2.18-3.83-2.73-5.05-37.01-28.39-39.55-25.84Z"/>
              <path class="cls-1" d="M614.08,299.16c16.78,55.4,1.71,117.67-36.34,160.64,8.16,1.28,19.69-4.59,26.98-8.55,72.5-39.3,58.83-128.2,13.4-183.21-1.22-1.48-1.52-2.3-1.52-2.3-.06-.1-.12-.16-.28-.9l-14.29,8.73c3.76,4.41,10.02,18.86,12.06,25.59Z"/>
              <path class="cls-1" d="M537.83,441.01c3.38-.5,22.68-11.57,26.2-14.29,30.32-23.41,39.42-57.37,36.3-94.43-.71-8.46-7.75-40.45-12.72-48.1-34.54,23.79-60.54,63.71-61.55,106.72-.38,16.16,4.36,31.69,4.89,47.71,0,0,3.34,2.92,6.88,2.4Z"/>
              <path class="cls-1" d="M600.39,271.56c-5.11-6.84-9.33-14.26-14.57-21.01-3.83-4.95-11.62-8.49-11.25-15.38,2.55-2.56,36.82,20.78,39.55,25.84.74,1.38,1.11,2.05,2.18,3.83,2.57-1,3.46-1.71,5.71-3.33,1.78-.67,3.49-1.53,5.13-2.51,1.74-.6,2.83-.59,4.44-1.48-20.96-15.85-42.89-26.23-67.46-35.32-36.24-13.41-75.97-26.76-114.71-30.61-136.68-13.57-259.81,36.64-375.4,102.51-1.58,3.43-7.59,8.18-5.63,12.13,56.36-21.61,108.66-52.78,163.9-76.69,77.94-33.74,163.33-44.77,247.39-27.84,1.62.33,23.95,5.02,19,9.24-46.69-3.07-92.94-1.68-138.87,7.26-111.65,21.73-190.11,83.64-292.3,121.05-7.71,2.82-22.54,2.56-22.53,12.16,98.59-22.2,183.27-82.82,276.88-116.28,56.35-20.14,144.54-29.38,203.02-15.67,26.57,6.23,53.21,40.15,62.75,64.72l14.4-10.61-1.63-2.01Z"/>
              <path class="cls-1" d="M679.45,351.66c4.62,58.39-16.75,95.22-55.8,134.42-.62.63-1.34,1.17-2.1,1.62l-5.22,3.03c-1.16.41-4.46,2.04-8.56,3.85,20.28-5.17,42.37-.11,64.46-1.08,85.3-3.76,203.81-24.18,262.36-91.25,2.14-2.45,17.9-21.65,16.18-23.36l-35.09,18.98c-55.81,23.05-114.65,25.91-173.98,19.74-4.73-.49-31.07-4.23-33.12-5.63-2.47-1.68-1.88-3.4-.81-5.66,1.17-2.46,27.36-27.92,31.47-31.51,55.29-48.22,129.55-74.46,202.59-78.36l65.46,4.89c-60.26-90.22-184.13-93.69-281.25-75.36-32.79,6.19-64.77,16.26-94.46,31.53,23.06,20.3,45.4,62.86,47.87,94.14Z"/>
              <path class="cls-1" d="M537.31,547.72c21.68-11.85,40.81-26.36,55.14-46.82,3.95-2.37,7.99-4.13,12.12-5.42-.13,0-.27,0-.41.02-3.47-.87-6.93-1.78-10.31-2.8-9.22-2.79-17.46-8.32-25.17-13.97-7.45-5.46-15.17-11.24-21.54-17.96-5.57-5.88-9.29-13.16-14.54-19.26l-.62-.74s-1.19-1.72-1.03-2.17c-63.13-46.48-139.97-49.5-215.31-38.52-34.68,5.05-65.64,14.86-94.55,34.62-18.74,12.81-23.89,12.34-44.13,20.46-52.2,20.93-106.9,47.26-137.63,96.56,6.15,81.07,58.1,154.06,137.17,177.57,22.83,6.79,53.7,9.63,77.54,8,18.17-1.25,35.97-7.23,53.95-9.53,17.42,63.12,74.08,111.35,135.79,129.02-21.58-41.05-21.21-88.7-8.06-132.36-16.85-2.74-33.21-5.24-49.3-11.28-3.81-1.43-20.67-6.94-17.76-11.38,1.48-2.26,39.03-23.53,45.88-28.4,13.74-9.77,28.46-21.96,41.31-32.97l81.47-92.68ZM453.92,426.99c19.69,0,35.64,15.96,35.64,35.64s-15.96,35.64-35.64,35.64-35.64-15.96-35.64-35.64,15.96-35.64,35.64-35.64Z"/>
              <path class="cls-1" d="M946.87,548.53c-7.95,8.52-15.88,21.29-24.33,30.57-78.61,86.37-148.14,116.99-264.84,127.52-14.6,1.32-39.43,3.3-53.34,1.71-8.4-.96-5.91-3.84-1.49-8.1,8.52-8.2,27.38-19.35,38.03-26.56,51.11-34.6,107.01-69.92,163.47-94.87,12.5-5.52,27.85-8.85,38.22-17.47-55.67-4.77-110.82-.16-164.32,15.7-87.46,25.93-230.18,95.25-229.8,201.45.25,69.88,27.3,119.09,99.67,128.14,165.53,20.71,301.04-61.94,390.38-195.28,28.88-43.11,38.77-110.73,17.41-159.22-2.84-6.45-3.65-9.4-9.07-3.59Z"/>
              <path class="cls-1" d="M87.72,801.88c24.72-2,58.74-22.72,73.49-42.74-73.67-27.52-128.32-96.5-142.1-173.6l-19.1,10.75c1.02,55.42,12.89,112.84,31.6,164.87,2.36,6.56,12.29,34.07,16.66,36.62,6.8,3.97,31.17,4.76,39.45,4.09Z"/>
              <path class="cls-1" d="M390.35,953.01c-38.21-29.82-79.43-56.26-118.51-84.93l-31.52-109.77h-33.91c8.04,44.94,21.27,88.9,37.08,131.65,46.49,30.29,96.64,55.64,151.01,68.58,1.52-1.59-3.12-4.72-4.16-5.53Z"/>
              <path class="cls-1" d="M295.25,1001.29c-33.13-33.41-71.47-62.12-104.78-95.44l-23.61-120.06c-5.13,5.03-10.64,9.9-16.18,14.47-4.03,3.32-10.67,4.67-10.63,10.5l20.43,112.17c38.62,37.84,87.99,64.29,137.95,84.05.61-2.88-1.48-3.95-3.19-5.68Z"/>
              <path class="cls-1" d="M70.78,826.13c1.33,7.4.63,16.86,2.86,23.79,2.13,6.62,17.67,28.57,22.63,35.5,2.42,3.38,5.08,7.72,8.42,10.14l-5.58-71.12-28.32,1.7Z"/>
            </g>
          </g>
          <g>
            <path class="cls-3" d="M300.77,377.91c-21.11,0-38.28,17.17-38.28,38.28,0,19.5,14.65,35.62,33.52,37.97l-4.54,75.48-126.59,96.58-44.37,98.72,8.21,3.69,43.43-96.64,126.41-96.44,1.64-1.25,4.82-80.06c19.11-2.12,34.03-18.37,34.03-38.04,0-21.11-17.17-38.28-38.28-38.28ZM300.77,445.47c-16.15,0-29.28-13.14-29.28-29.28s13.14-29.28,29.28-29.28,29.28,13.14,29.28,29.28-13.14,29.28-29.28,29.28Z"/>
            <path class="cls-3" d="M678.13,675.93c-9.88-8.77-26.73-11.39-53.02-8.24-29.68,3.55-50.42,24.4-50.42,50.69,0,1.65.07,3.26.21,4.82l-125.33,16.63,5.43-51.65-41.35,14.45,2.97,8.5,27.95-9.76-5.14,48.89,137.18-18.2c5.23,17,21.06,26.18,45.88,26.18,26.09,0,66.33-22.05,66.33-51.36,0-14.64-3.4-24.47-10.69-30.95Z"/>
          </g>
        </g>
      </g>
    </g>
  </g>
</svg>