<?xml version="1.0" encoding="UTF-8"?>
<svg id="Camada_2" data-name="Camada 2" xmlns="http://www.w3.org/2000/svg" viewBox="0 0 1146.09 1145.32">
  <defs>
    <style>
      .cls-1 {
        fill: #f0f8f8;
      }

      .cls-2 {
        fill: #fa382e;
      }
    </style>
  </defs>
  <g id="Apresentações">
    <g id="_08" data-name="08">
      <g>
        <g id="Opção_1" data-name="Opção 1">
          <circle class="cls-2" cx="573.43" cy="572.66" r="572.66"/>
          <g>
            <path class="cls-1" d="M574.57,235.17c-.38,6.89,7.41,10.43,11.25,15.38,5.24,6.75,9.46,14.17,14.57,21.01l1.63,2.01,14.29-8.73c-1.07-1.78-1.44-2.45-2.18-3.83-2.73-5.05-37.01-28.39-39.55-25.84Z"/>
            <path class="cls-1" d="M614.08,299.16c16.78,55.4,1.71,117.67-36.34,160.64,8.16,1.28,19.69-4.59,26.98-8.55,72.5-39.3,58.83-128.2,13.4-183.21-1.22-1.48-1.52-2.3-1.52-2.3-.06-.1-.12-.16-.28-.9l-14.29,8.73c3.76,4.41,10.02,18.86,12.06,25.59Z"/>
            <path class="cls-1" d="M537.83,441.01c3.38-.5,22.68-11.57,26.2-14.29,30.32-23.41,39.42-57.37,36.3-94.43-.71-8.46-7.75-40.45-12.72-48.1-34.54,23.79-60.54,63.71-61.55,106.72-.38,16.16,4.36,31.69,4.89,47.71,0,0,3.34,2.92,6.88,2.4Z"/>
            <path class="cls-1" d="M600.39,271.56c-5.11-6.84-9.33-14.26-14.57-21.01-3.83-4.95-11.62-8.49-11.25-15.38,2.55-2.56,36.82,20.78,39.55,25.84.74,1.38,1.11,2.05,2.18,3.83,2.57-1,3.46-1.71,5.71-3.33,1.78-.67,3.49-1.53,5.13-2.51,1.74-.6,2.83-.59,4.44-1.48-20.96-15.85-42.89-26.23-67.46-35.32-36.24-13.41-75.97-26.76-114.71-30.61-136.68-13.57-259.81,36.64-375.4,102.51-1.58,3.43-7.59,8.18-5.63,12.13,56.36-21.61,108.66-52.78,163.9-76.69,77.94-33.74,163.33-44.77,247.39-27.84,1.62.33,23.95,5.02,19,9.24-46.69-3.07-92.94-1.68-138.87,7.26-111.65,21.73-190.11,83.64-292.3,121.05-7.71,2.82-22.54,2.56-22.53,12.16,98.59-22.2,183.27-82.82,276.88-116.28,56.35-20.14,144.54-29.38,203.02-15.67,26.57,6.23,53.21,40.15,62.75,64.72l14.4-10.61-1.63-2.01Z"/>
            <path class="cls-1" d="M679.45,351.66c4.62,58.39-16.75,95.22-55.8,134.42-.62.63-1.34,1.17-2.1,1.62l-5.22,3.03c-1.16.41-4.46,2.04-8.56,3.85,20.28-5.17,42.37-.11,64.46-1.08,85.3-3.76,203.81-24.18,262.36-91.25,2.14-2.45,17.9-21.65,16.18-23.36l-35.09,18.98c-55.81,23.05-114.65,25.91-173.98,19.74-4.73-.49-31.07-4.23-33.12-5.63-2.47-1.68-1.88-3.4-.81-5.66,1.17-2.46,27.36-27.92,31.47-31.51,55.29-48.22,129.55-74.46,202.59-78.36l65.46,4.89c-60.26-90.22-184.13-93.69-281.25-75.36-32.79,6.19-64.77,16.26-94.46,31.53,23.06,20.3,45.4,62.86,47.87,94.14Z"/>
            <path class="cls-1" d="M537.31,547.72c21.68-11.85,40.81-26.36,55.14-46.82,3.95-2.37,7.99-4.13,12.12-5.42-.13,0-.27,0-.41.02-3.47-.87-6.93-1.78-10.31-2.8-9.22-2.79-17.46-8.32-25.17-13.97-7.45-5.46-15.17-11.24-21.54-17.96-5.57-5.88-9.29-13.16-14.54-19.26l-.62-.74s-1.19-1.72-1.03-2.17c-63.13-46.48-139.97-49.5-215.31-38.52-34.68,5.05-65.64,14.86-94.55,34.62-18.74,12.81-23.89,12.34-44.13,20.46-52.2,20.93-106.9,47.26-137.63,96.56,6.15,81.07,58.1,154.06,137.17,177.57,22.83,6.79,53.7,9.63,77.54,8,18.17-1.25,35.97-7.23,53.95-9.53,17.42,63.12,74.08,111.35,135.79,129.02-21.58-41.05-21.21-88.7-8.06-132.36-16.85-2.74-33.21-5.24-49.3-11.28-3.81-1.43-20.67-6.94-17.76-11.38,1.48-2.26,39.03-23.53,45.88-28.4,13.74-9.77,28.46-21.96,41.31-32.97l81.47-92.68ZM453.92,426.99c19.69,0,35.64,15.96,35.64,35.64s-15.96,35.64-35.64,35.64-35.64-15.96-35.64-35.64,15.96-35.64,35.64-35.64Z"/>
            <path class="cls-1" d="M946.87,548.53c-7.95,8.52-15.88,21.29-24.33,30.57-78.61,86.37-148.14,116.99-264.84,127.52-14.6,1.32-39.43,3.3-53.34,1.71-8.4-.96-5.91-3.84-1.49-8.1,8.52-8.2,27.38-19.35,38.03-26.56,51.11-34.6,107.01-69.92,163.47-94.87,12.5-5.52,27.85-8.85,38.22-17.47-55.67-4.77-110.82-.16-164.32,15.7-87.46,25.93-230.18,95.25-229.8,201.45.25,69.88,27.3,119.09,99.67,128.14,165.53,20.71,301.04-61.94,390.38-195.28,28.88-43.11,38.77-110.73,17.41-159.22-2.84-6.45-3.65-9.4-9.07-3.59Z"/>
            <path class="cls-1" d="M87.72,801.88c24.72-2,58.74-22.72,73.49-42.74-73.67-27.52-128.32-96.5-142.1-173.6l-19.1,10.75c1.02,55.42,12.89,112.84,31.6,164.87,2.36,6.56,12.29,34.07,16.66,36.62,6.8,3.97,31.17,4.76,39.45,4.09Z"/>
            <path class="cls-1" d="M390.35,953.01c-38.21-29.82-79.43-56.26-118.51-84.93l-31.52-109.77h-33.91c8.04,44.94,21.27,88.9,37.08,131.65,46.49,30.29,96.64,55.64,151.01,68.58,1.52-1.59-3.12-4.72-4.16-5.53Z"/>
            <path class="cls-1" d="M295.25,1001.29c-33.13-33.41-71.47-62.12-104.78-95.44l-23.61-120.06c-5.13,5.03-10.64,9.9-16.18,14.47-4.03,3.32-10.67,4.67-10.63,10.5l20.43,112.17c38.62,37.84,87.99,64.29,137.95,84.05.61-2.88-1.48-3.95-3.19-5.68Z"/>
            <path class="cls-1" d="M70.78,826.13c1.33,7.4.63,16.86,2.86,23.79,2.13,6.62,17.67,28.57,22.63,35.5,2.42,3.38,5.08,7.72,8.42,10.14l-5.58-71.12-28.32,1.7Z"/>
          </g>
        </g>
        <g>
          <path class="cls-2" d="M300.77,377.91c-21.11,0-38.28,17.17-38.28,38.28,0,19.5,14.65,35.62,33.52,37.97l-4.54,75.48-126.59,96.58-44.37,98.72,8.21,3.69,43.43-96.64,126.41-96.44,1.64-1.25,4.82-80.06c19.11-2.12,34.03-18.37,34.03-38.04,0-21.11-17.17-38.28-38.28-38.28ZM300.77,445.47c-16.15,0-29.28-13.14-29.28-29.28s13.14-29.28,29.28-29.28,29.28,13.14,29.28,29.28-13.14,29.28-29.28,29.28Z"/>
          <path class="cls-2" d="M678.13,675.93c-9.88-8.77-26.73-11.39-53.02-8.24-29.68,3.55-50.42,24.4-50.42,50.69,0,1.65.07,3.26.21,4.82l-125.33,16.63,5.43-51.65-41.35,14.45,2.97,8.5,27.95-9.76-5.14,48.89,137.18-18.2c5.23,17,21.06,26.18,45.88,26.18,26.09,0,66.33-22.05,66.33-51.36,0-14.64-3.4-24.47-10.69-30.95Z"/>
        </g>
      </g>
    </g>
  </g>
</svg>